HIERARCHY
ROOT Hips
{
    OFFSET 0.000000 0.000000 0.000000
    CHANNELS 6 Xposition Yposition Zposition Zrotation Xrotation Yrotation
    JOINT Spine
    {
        OFFSET -0.000000 14.517291 0.000000
        CHANNELS 3 Zrotation Xrotation Yrotation
        JOINT Spine1
        {
            OFFSET -0.000000 37.558300 0.000000
            CHANNELS 3 Zrotation Xrotation Yrotation
            JOINT Neck
            {
                OFFSET -0.000000 37.404057 3.400369
                CHANNELS 3 Zrotation Xrotation Yrotation
                JOINT Head
                {
                    OFFSET -0.000000 24.785618 -3.540803
                    CHANNELS 3 Zrotation Xrotation Yrotation
                    End Site
                    {
                        OFFSET -0.000000 35.408028 0.000000
                    }
                }
            }
            JOINT LeftShoulder
            {
                OFFSET 6.992933 33.973492 -0.192664
                CHANNELS 3 Zrotation Xrotation Yrotation
                JOINT LeftArm
                {
                    OFFSET 21.527611 0.000000 0.000000
                    CHANNELS 3 Zrotation Xrotation Yrotation
                    JOINT LeftForeArm
                    {
                        OFFSET 56.353916 0.000000 0.000000
                        CHANNELS 3 Zrotation Xrotation Yrotation
                        JOINT LeftHand
                        {
                            OFFSET 47.774071 0.000000 0.000000
                            CHANNELS 3 Zrotation Xrotation Yrotation
                            End Site
                            {
                                OFFSET 26.556021 0.000000 0.000000
                            }
                        }
                    }
                }
            }
            JOINT RightShoulder
            {
                OFFSET -7.065357 33.973492 -0.192664
                CHANNELS 3 Zrotation Xrotation Yrotation
                JOINT RightArm
                {
                    OFFSET -21.527611 0.000000 0.000000
                    CHANNELS 3 Zrotation Xrotation Yrotation
                    JOINT RightForeArm
                    {
                        OFFSET -56.353916 0.000000 0.000000
                        CHANNELS 3 Zrotation Xrotation Yrotation
                        JOINT RightHand
                        {
                            OFFSET -47.774071 0.000000 0.000000
                            CHANNELS 3 Zrotation Xrotation Yrotation
                            End Site
                            {
                                OFFSET -26.556021 0.000000 0.000000
                            }
                        }
                    }
                }
            }
        }
    }
    JOINT LeftUpLeg
    {
        OFFSET 17.704014 0.000000 0.000000
        CHANNELS 3 Zrotation Xrotation Yrotation
        JOINT LeftLeg
        {
            OFFSET -0.000000 -81.181816 0.000000
            CHANNELS 3 Zrotation Xrotation Yrotation
            JOINT LeftFoot
            {
                OFFSET -0.000000 -62.821102 0.000000
                CHANNELS 3 Zrotation Xrotation Yrotation
                JOINT LeftToeBase
                {
                    OFFSET -0.000000 -11.507608 26.556021
                    CHANNELS 3 Zrotation Xrotation Yrotation
                    End Site
                    {
                        OFFSET -0.000000 0.000000 7.081605
                    }
                }
            }
        }
    }
    JOINT RightUpLeg
    {
        OFFSET -17.704014 0.000000 0.000000
        CHANNELS 3 Zrotation Xrotation Yrotation
        JOINT RightLeg
        {
            OFFSET -0.000000 -81.181816 0.000000
            CHANNELS 3 Zrotation Xrotation Yrotation
            JOINT RightFoot
            {
                OFFSET -0.000000 -62.821102 0.000000
                CHANNELS 3 Zrotation Xrotation Yrotation
                JOINT RightToeBase
                {
                    OFFSET -0.000000 -11.507608 26.556021
                    CHANNELS 3 Zrotation Xrotation Yrotation
                    End Site
                    {
                        OFFSET -0.000000 0.000000 7.081605
                    }
                }
            }
        }
    }
}
MOTION
Frames:    6
Frame Time:    0.008333
-13.544973    152.315018    -97.740532    1.724088    -6.755993    47.227665    -2.805084    -0.184677    -0.951200    -1.251877    1.807059    -0.297203    -1.549692    5.757598    -19.709471    17.045006    0.851090    -18.169003    2.052958    8.941870    -13.634237    -31.648121    7.845830    -52.720207    10.081941    -49.669926    -89.060890    -20.963266    -39.978561    -20.024170    2.211915    12.191392    -6.598389    36.209476    17.603962    42.942600    -14.449977    1.227305    31.160284    -28.050917    -4.142876    36.377533    19.545746    -3.030472    -5.114033    -18.704704    41.213081    -20.783169    7.246152    -31.018476    50.555531    0.000000    0.000000    0.000000    -22.858780    -15.274853    -25.021532    10.644924    30.438469    -19.347256    7.448057    6.933504    -8.369749    0.000000    0.000000    0.000000    
-13.543070    152.325775    -97.734680    1.733350    -6.762782    47.246456    -2.815548    -0.178755    -0.966423    -1.242015    1.808760    -0.302612    -1.538053    5.746769    -19.710510    17.041058    0.846916    -18.170988    2.095606    8.948512    -13.691252    -31.549959    8.156749    -52.862549    9.515569    -49.318398    -89.990723    -20.898067    -39.894936    -19.973995    2.228570    12.169990    -6.598130    36.217888    17.626627    42.915771    -14.472359    1.220887    31.185556    -28.067469    -4.143960    36.372688    19.542944    -3.014062    -5.129281    -18.687082    41.188698    -20.799061    7.237372    -31.003853    50.548424    0.000000    0.000000    0.000000    -22.843401    -15.243811    -25.008268    10.628801    30.404087    -19.357916    7.466829    6.933850    -8.372161    0.000000    0.000000    0.000000    
-13.538816    152.332718    -97.734161    1.745100    -6.764328    47.262539    -2.822006    -0.168585    -0.978347    -1.243174    1.795871    -0.306624    -1.538553    5.742288    -19.714993    17.058329    0.851758    -18.174070    2.144012    8.966457    -13.758970    -31.443861    8.462395    -53.014557    9.108315    -49.018158    -90.829842    -20.934557    -39.765099    -19.870033    2.243505    12.174133    -6.603936    36.236046    17.608072    42.903255    -14.464191    1.238966    31.215088    -28.079311    -4.126546    36.366222    19.534735    -2.995568    -5.156359    -18.690516    41.151764    -20.784374    7.242969    -30.987125    50.539581    0.000000    0.000000    0.000000    -22.843250    -15.218464    -24.985443    10.634050    30.379198    -19.354504    7.453504    6.930974    -8.400264    0.000000    0.000000    0.000000    
-13.534328    152.338730    -97.732269    1.756591    -6.766127    47.282082    -2.834004    -0.166408    -0.990975    -1.238725    1.799412    -0.310991    -1.524269    5.730937    -19.713747    17.055805    0.847854    -18.173750    2.188581    8.969213    -13.828256    -31.365608    8.743423    -53.149303    8.628469    -48.602512    -91.704887    -20.827919    -39.593925    -19.698856    2.267304    12.167507    -6.598883    36.245918    17.578733    42.879471    -14.442436    1.265489    31.241230    -28.109610    -4.113419    36.366535    19.525230    -2.983119    -5.156343    -18.669533    41.136597    -20.800379    7.237116    -30.982872    50.529434    0.000000    0.000000    0.000000    -22.838562    -15.192475    -24.959206    10.626825    30.355066    -19.367102    7.472557    6.922478    -8.407922    0.000000    0.000000    0.000000    
-13.532061    152.347916    -97.734192    1.760713    -6.765104    47.298946    -2.834077    -0.164004    -1.003079    -1.247659    1.788810    -0.314986    -1.511327    5.724501    -19.720348    17.052563    0.850679    -18.182737    2.234504    8.984980    -13.882862    -31.287388    8.976468    -53.294899    8.047969    -48.131489    -92.614952    -20.701942    -39.436577    -19.638208    2.288436    12.178137    -6.602093    36.239136    17.585024    42.877338    -14.458088    1.258102    31.256756    -28.122820    -4.116961    36.359596    19.517792    -2.977672    -5.154180    -18.645016    41.118927    -20.823771    7.237887    -30.967388    50.518322    0.000000    0.000000    0.000000    -22.847673    -15.175767    -24.875059    10.693572    30.325727    -19.437971    7.473615    6.926073    -8.458843    0.000000    0.000000    0.000000    
-13.529181    152.354889    -97.735260    1.773337    -6.763393    47.314396    -2.847249    -0.161725    -1.017013    -1.239520    1.790807    -0.319696    -1.517570    5.731293    -19.724789    17.067543    0.836344    -18.182817    2.268168    8.993908    -13.933447    -31.213491    9.210320    -53.439426    7.604371    -47.678898    -93.422867    -20.717028    -39.193134    -19.593914    2.288706    12.163380    -6.588242    36.254581    17.583286    42.855774    -14.450670    1.277931    31.266893    -28.124958    -4.097406    36.355183    19.504156    -2.965618    -5.158543    -18.630919    41.099209    -20.837706    7.229524    -30.960293    50.523842    0.000000    0.000000    0.000000    -22.852247    -15.153448    -24.821892    10.712547    30.300795    -19.466980    7.480901    6.918736    -8.476272    0.000000    0.000000    0.000000    
